<svg xmlns="http://www.w3.org/2000/svg" xmlns:xlink="http://www.w3.org/1999/xlink" viewBox="0,0,256,256" width="50px" height="50px"><g fill="#e84545" fill-rule="nonzero" stroke="none" stroke-width="1" stroke-linecap="butt" stroke-linejoin="miter" stroke-miterlimit="10" stroke-dasharray="" stroke-dashoffset="0" font-family="none" font-weight="none" font-size="none" text-anchor="none" style="mix-blend-mode: normal"><g transform="scale(5.12,5.12)"><path d="M14,4c-5.51133,0 -10,4.48867 -10,10v22c0,5.51133 4.48867,10 10,10h22c5.51133,0 10,-4.48867 10,-10v-22c0,-5.51133 -4.48867,-10 -10,-10zM14,6h22c4.43067,0 8,3.56933 8,8v22c0,4.43067 -3.56933,8 -8,8h-22c-4.43067,0 -8,-3.56933 -8,-8v-22c0,-4.43067 3.56933,-8 8,-8zM25.51563,14c-3.96645,0 -7.39504,1.85766 -8.92383,4.70117c-3.38791,1.40606 -5.51962,5.24423 -4.17383,9.25977c0.64384,1.92109 2.06776,3.5263 3.93164,4.35547c2.01477,0.89616 3.92581,0.55593 5.5957,-0.13867l0.38281,3.79102c0.04116,0.41504 0.33557,0.76096 0.7387,0.86794c0.40313,0.10698 0.83031,-0.04745 1.07185,-0.38747l3.56055,-5.00781c1.9024,-0.10383 3.44092,-1.20721 4.41992,-2.7168c0.03625,0.0015 0.03568,0.00781 0.07617,0.00781c3.19272,0 5.80273,-2.61001 5.80273,-5.80273c0.0011,-2.7262 -1.92543,-4.96174 -4.47266,-5.57227c-1.79387,-2.06264 -4.70609,-3.35742 -8.00977,-3.35742zM25.51563,16c2.89086,0 5.37107,1.19695 6.68359,2.83398c0.15416,0.1924 0.37395,0.32108 0.61719,0.36133c1.80649,0.29738 3.18244,1.83848 3.18164,3.73242c0,0.00065 0,0.0013 0,0.00195c0,2.11128 -1.69146,3.80273 -3.80273,3.80273c-0.02167,0 -0.1299,-0.01992 -0.35742,-0.04102c-0.4217,-0.03905 -0.82228,0.19175 -1,0.57617c-0.6037,1.30815 -1.90773,2.21875 -3.44531,2.21875c0.07884,0 0.02826,-0.01095 -0.17187,-0.02148c-0.34188,-0.01767 -0.66905,0.14075 -0.86719,0.41992l-2.30273,3.23633l-0.24414,-2.41406c-0.03525,-0.34578 -0.24749,-0.64847 -0.56057,-0.79943c-0.31308,-0.15096 -0.68208,-0.12855 -0.97459,0.0592c-1.44246,0.92873 -3.21138,1.36569 -5.10937,0.52148c-1.32812,-0.59083 -2.3815,-1.7712 -2.84766,-3.16211c-1.06867,-3.18869 0.66011,-6.0295 3.29297,-6.94531c0.25378,-0.08814 0.46143,-0.27467 0.57617,-0.51758c1.00563,-2.13692 3.86111,-3.86328 7.33203,-3.86328z"></path></g></g></svg>